<?xml version="1.0" encoding="UTF-8" standalone="no"?>
<svg width="145px" height="52px" viewBox="0 0 145 52" version="1.1" xmlns="http://www.w3.org/2000/svg" xmlns:xlink="http://www.w3.org/1999/xlink" xmlns:sketch="http://www.bohemiancoding.com/sketch/ns">
    <!-- Generator: Sketch 3.3.2 (12043) - http://www.bohemiancoding.com/sketch -->
    <title>taskv</title>
    <desc>Created with Sketch.</desc>
    <defs></defs>
    <g id="Page-1" stroke="none" stroke-width="1" fill="none" fill-rule="evenodd" sketch:type="MSPage">
        <g id="taskv" sketch:type="MSLayerGroup">
            <path d="M137.08,8 L108.92,8 C104.564,8 101,11.564 101,15.9206111 L101,44.0806111 C101,48.436 104.564,52 108.92,52 L137.08,52 C141.436,52 145,48.436 145,44.0806111 L145,15.9206111 C145,11.564 141.436,8 137.08,8 L137.08,8 Z M136.915611,24.3307222 L121.686722,39.5962778 C121.247944,40.0356667 120.381389,40.395 119.7605,40.395 L118.444778,40.395 C117.823889,40.395 116.957944,40.0344444 116.519167,39.5956667 L109.347778,32.3900556 C108.909611,31.9506667 108.910833,31.2307778 109.349611,30.7913889 L112.171722,27.9698889 C112.6105,27.5305 113.329778,27.5305 113.768556,27.9686667 L118.351278,32.5416111 C118.790667,32.9803889 119.509333,32.9791667 119.9475,32.5403889 L132.506444,19.9515 C132.944611,19.5121111 133.663889,19.5108889 134.1045,19.9478333 L136.911944,22.7363333 C137.352556,23.1738889 137.354389,23.8913333 136.915611,24.3307222 L136.915611,24.3307222 Z" id="Fill-492" fill="#D0011B" sketch:type="MSShapeGroup"></path>
            <path d="M3.672,3.672 L11.016,3.672 L11.016,14.76 L15.552,14.76 L15.552,20.52 L11.016,20.52 L11.016,40.752 C11.016,41.6160043 11.0999992,42.2879976 11.268,42.768 C11.4360008,43.2480024 11.6999982,43.6079988 12.06,43.848 C12.4200018,44.0880012 12.8879971,44.2319998 13.464,44.28 C14.0400029,44.3280002 14.7359959,44.352 15.552,44.352 L15.552,51.264 L12.528,51.264 C10.8479916,51.264 9.44400564,51.0000026 8.316,50.472 C7.18799436,49.9439974 6.28800336,49.2720041 5.616,48.456 C4.94399664,47.6399959 4.45200156,46.7160052 4.14,45.684 C3.82799844,44.6519948 3.672,43.6560048 3.672,42.696 L3.672,20.52 L0,20.52 L0,14.76 L3.672,14.76 L3.672,3.672 Z M32.256,47.52 L32.112,47.52 C31.1519952,48.8640067 30.1800049,49.8959964 29.196,50.616 C28.2119951,51.3360036 26.8320089,51.696 25.056,51.696 C24.1919957,51.696 23.3040046,51.5640013 22.392,51.3 C21.4799954,51.0359987 20.628004,50.5560035 19.836,49.86 C19.043996,49.1639965 18.3960025,48.1800064 17.892,46.908 C17.3879975,45.6359936 17.136,43.9920101 17.136,41.976 C17.136,39.9119897 17.3039983,38.1000078 17.64,36.54 C17.9760017,34.9799922 18.5879956,33.6840052 19.476,32.652 C20.3640044,31.6199948 21.5519926,30.8520025 23.04,30.348 C24.5280074,29.8439975 26.4239885,29.592 28.728,29.592 C29.2560026,29.592 29.7839974,29.6159998 30.312,29.664 C30.8400026,29.7120002 31.4879962,29.7599998 32.256,29.808 L32.256,25.992 C32.256,24.7439938 31.9920026,23.7120041 31.464,22.896 C30.9359974,22.0799959 29.976007,21.672 28.584,21.672 C27.6239952,21.672 26.748004,21.9839969 25.956,22.608 C25.163996,23.2320031 24.6480012,24.143994 24.408,25.344 L17.28,25.344 C17.5200012,22.0319834 18.6239902,19.3920098 20.592,17.424 C21.5520048,16.4639952 22.7039933,15.7080028 24.048,15.156 C25.3920067,14.6039972 26.9039916,14.328 28.584,14.328 C30.1200077,14.328 31.5599933,14.5679976 32.904,15.048 C34.2480067,15.5280024 35.4119951,16.2479952 36.396,17.208 C37.3800049,18.1680048 38.1599971,19.3679928 38.736,20.808 C39.3120029,22.2480072 39.6,23.9279904 39.6,25.848 L39.6,51.264 L32.256,51.264 L32.256,47.52 Z M32.256,35.568 C31.4399959,35.4239993 30.7680026,35.352 30.24,35.352 C28.6559921,35.352 27.3000056,35.7239963 26.172,36.468 C25.0439944,37.2120037 24.48,38.5679902 24.48,40.536 C24.48,41.928007 24.8159966,43.0559957 25.488,43.92 C26.1600034,44.7840043 27.095994,45.216 28.296,45.216 C29.5440062,45.216 30.5159965,44.8080041 31.212,43.992 C31.9080035,43.1759959 32.256,42.0240074 32.256,40.536 L32.256,35.568 Z M58.32,24.984 C58.2719998,23.7359938 57.8760037,22.8000031 57.132,22.176 C56.3879963,21.5519969 55.5360048,21.24 54.576,21.24 C53.4239942,21.24 52.5360031,21.6119963 51.912,22.356 C51.2879969,23.1000037 50.976,23.9519952 50.976,24.912 C50.976,25.5840034 51.1439983,26.2439968 51.48,26.892 C51.8160017,27.5400032 52.679993,28.1279974 54.072,28.656 L58.392,30.384 C61.1280137,31.4400053 63.0119948,32.8799909 64.044,34.704 C65.0760052,36.5280091 65.592,38.5199892 65.592,40.68 C65.592,42.2160077 65.3160028,43.6439934 64.764,44.964 C64.2119972,46.2840066 63.4560048,47.447995 62.496,48.456 C61.5359952,49.464005 60.3840067,50.2559971 59.04,50.832 C57.6959933,51.4080029 56.2320079,51.696 54.648,51.696 C53.2079928,51.696 51.8400065,51.4560024 50.544,50.976 C49.2479935,50.4959976 48.1080049,49.8000046 47.124,48.888 C46.1399951,47.9759954 45.3360031,46.8360068 44.712,45.468 C44.0879969,44.0999932 43.7520002,42.5040091 43.704,40.68 L50.616,40.68 C50.7600007,41.688005 51.1079972,42.6239957 51.66,43.488 C52.2120028,44.3520043 53.183993,44.784 54.576,44.784 C55.6320053,44.784 56.5799958,44.4360035 57.42,43.74 C58.2600042,43.0439965 58.68,42.0720062 58.68,40.824 C58.68,39.815995 58.4160026,38.9520036 57.888,38.232 C57.3599974,37.5119964 56.400007,36.8880026 55.008,36.36 L51.48,35.064 C49.1759885,34.1999957 47.3640066,32.9160085 46.044,31.212 C44.7239934,29.5079915 44.064,27.4320122 44.064,24.984 C44.064,23.4479923 44.3519971,22.0200066 44.928,20.7 C45.5040029,19.3799934 46.2839951,18.2520047 47.268,17.316 C48.2520049,16.3799953 49.3919935,15.6480026 50.688,15.12 C51.9840065,14.5919974 53.3759926,14.328 54.864,14.328 C56.3520074,14.328 57.7319936,14.6039972 59.004,15.156 C60.2760064,15.7080028 61.3679954,16.4519953 62.28,17.388 C63.1920046,18.3240047 63.9119974,19.4519934 64.44,20.772 C64.9680026,22.0920066 65.232,23.4959926 65.232,24.984 L58.32,24.984 Z M70.344,0 L77.688,0 L77.688,30.672 L77.832,30.672 L86.688,14.76 L94.032,14.76 L85.32,29.592 L95.832,51.264 L87.84,51.264 L81.216,35.496 L77.688,41.04 L77.688,51.264 L70.344,51.264 L70.344,0 Z" id="task" fill="#4990E2" sketch:type="MSShapeGroup"></path>
        </g>
    </g>
</svg>